# xmcd
#
# Track frame offsets: 
#        150
#        13132
#        26393
#        44393
#        62537
#        82204
#        90913
#        96716
#        112695
#        129133
#        146043
#        164781
#        183294
#        202461
#
# Disc length: 2899 seconds
#
# Revision: 0
# Processed by: cddbd v1.5.2PL0 Copyright (c) Steve Scherf et al.
# Submitted via: ExactAudioCopy v1.1
#
DISCID=c10b510e
DTITLE=Tamar Braxton - Love and War
DYEAR=2013
DGENRE=R&B
TTITLE0=The One
TTITLE1=Tip Toe
TTITLE2=Stay And Fight
TTITLE3=Love and War
TTITLE4=All The Way Home
TTITLE5=One On One Fun
TTITLE6=She Did That
TTITLE7=Hot Sugar
TTITLE8=Pieces
TTITLE9=Where It Hurts
TTITLE10=Prettiest Girl
TTITLE11=Sound Of Love
TTITLE12=White Candle
TTITLE13=Thank You Lord
EXTD=
EXTT0=
EXTT1=
EXTT2=
EXTT3=
EXTT4=
EXTT5=
EXTT6=
EXTT7=
EXTT8=
EXTT9=
EXTT10=
EXTT11=
EXTT12=
EXTT13=
PLAYORDER=
